<?xml version="1.0" standalone="no"?>
<!DOCTYPE svg PUBLIC "-//W3C//DTD SVG 1.1//EN" "http://www.w3.org/Graphics/SVG/1.1/DTD/svg11.dtd">
<svg xmlns="http://www.w3.org/2000/svg" xmlns:xlink="http://www.w3.org/1999/xlink" width="375" zoomAndPan="magnify" viewBox="0 0 375 374.999991" height="375" preserveAspectRatio="xMidYMid meet" version="1.2"><defs><clipPath id="e46106bc96"><path d="M 56 181 L 69 181 L 69 197 L 56 197 Z M 56 181 "/></clipPath><clipPath id="1f10f286ad"><path d="M 37.5 186.492188 L 71.539062 167.460938 L 91.304688 202.808594 L 57.265625 221.84375 Z M 37.5 186.492188 "/></clipPath><clipPath id="2b95b0dc33"><path d="M 37.5 186.492188 L 71.539062 167.460938 L 91.304688 202.808594 L 57.265625 221.84375 Z M 37.5 186.492188 "/></clipPath><clipPath id="20ac07088a"><path d="M 74 188 L 84 188 L 84 198 L 74 198 Z M 74 188 "/></clipPath><clipPath id="d68540ffd7"><path d="M 37.5 186.492188 L 71.539062 167.460938 L 91.304688 202.808594 L 57.265625 221.84375 Z M 37.5 186.492188 "/></clipPath><clipPath id="89ee8e8518"><path d="M 37.5 186.492188 L 71.539062 167.460938 L 91.304688 202.808594 L 57.265625 221.84375 Z M 37.5 186.492188 "/></clipPath><clipPath id="1ce1809d65"><path d="M 58 202 L 69 202 L 69 217 L 58 217 Z M 58 202 "/></clipPath><clipPath id="03e59281ef"><path d="M 37.5 186.492188 L 71.539062 167.460938 L 91.304688 202.808594 L 57.265625 221.84375 Z M 37.5 186.492188 "/></clipPath><clipPath id="cb4ad16a09"><path d="M 37.5 186.492188 L 71.539062 167.460938 L 91.304688 202.808594 L 57.265625 221.84375 Z M 37.5 186.492188 "/></clipPath><clipPath id="ce3e17d7eb"><path d="M 74 176 L 78 176 L 78 181 L 74 181 Z M 74 176 "/></clipPath><clipPath id="e50d1d9850"><path d="M 37.5 186.492188 L 71.539062 167.460938 L 91.304688 202.808594 L 57.265625 221.84375 Z M 37.5 186.492188 "/></clipPath><clipPath id="ee1b8e8f15"><path d="M 37.5 186.492188 L 71.539062 167.460938 L 91.304688 202.808594 L 57.265625 221.84375 Z M 37.5 186.492188 "/></clipPath><clipPath id="f5c76cb1ae"><path d="M 46 199 L 49 199 L 49 204 L 46 204 Z M 46 199 "/></clipPath><clipPath id="08c2d211ee"><path d="M 37.5 186.492188 L 71.539062 167.460938 L 91.304688 202.808594 L 57.265625 221.84375 Z M 37.5 186.492188 "/></clipPath><clipPath id="6f4c377bfe"><path d="M 37.5 186.492188 L 71.539062 167.460938 L 91.304688 202.808594 L 57.265625 221.84375 Z M 37.5 186.492188 "/></clipPath><clipPath id="18c926fb8c"><path d="M 47 180 L 51 180 L 51 186 L 47 186 Z M 47 180 "/></clipPath><clipPath id="ee44557bed"><path d="M 37.5 186.492188 L 71.539062 167.460938 L 91.304688 202.808594 L 57.265625 221.84375 Z M 37.5 186.492188 "/></clipPath><clipPath id="a606a838da"><path d="M 37.5 186.492188 L 71.539062 167.460938 L 91.304688 202.808594 L 57.265625 221.84375 Z M 37.5 186.492188 "/></clipPath><clipPath id="8f0ee32d49"><path d="M 65 173 L 68 173 L 68 177 L 65 177 Z M 65 173 "/></clipPath><clipPath id="4eb2e1f85c"><path d="M 37.5 186.492188 L 71.539062 167.460938 L 91.304688 202.808594 L 57.265625 221.84375 Z M 37.5 186.492188 "/></clipPath><clipPath id="cac3071bb1"><path d="M 37.5 186.492188 L 71.539062 167.460938 L 91.304688 202.808594 L 57.265625 221.84375 Z M 37.5 186.492188 "/></clipPath></defs><g id="259d9d9c84"><rect x="0" width="375" y="0" height="374.999991" style="fill:#ffffff;fill-opacity:1;stroke:none;"/><rect x="0" width="375" y="0" height="374.999991" style="fill:#f8dbdb;fill-opacity:1;stroke:none;"/><g clip-rule="nonzero" clip-path="url(#e46106bc96)"><g clip-rule="nonzero" clip-path="url(#1f10f286ad)"><g clip-rule="nonzero" clip-path="url(#2b95b0dc33)"><path style=" stroke:none;fill-rule:nonzero;fill:#ffffff;fill-opacity:1;" d="M 68.179688 185.808594 L 66.453125 187.441406 C 64.878906 188.933594 64.425781 191.488281 65.300781 193.949219 L 66.257812 196.636719 L 64.46875 194.414062 C 62.832031 192.378906 60.417969 191.425781 58.320312 191.988281 L 56.027344 192.605469 L 57.753906 190.972656 C 59.328125 189.480469 59.78125 186.925781 58.90625 184.464844 L 57.949219 181.777344 L 59.738281 184 C 61.375 186.035156 63.789062 186.988281 65.886719 186.425781 Z M 68.179688 185.808594 "/></g></g></g><g clip-rule="nonzero" clip-path="url(#20ac07088a)"><g clip-rule="nonzero" clip-path="url(#d68540ffd7)"><g clip-rule="nonzero" clip-path="url(#89ee8e8518)"><path style=" stroke:none;fill-rule:nonzero;fill:#ffffff;fill-opacity:1;" d="M 83.761719 190.664062 L 82.40625 191.835938 C 81.171875 192.90625 80.6875 194.609375 81.183594 196.167969 L 81.722656 197.875 L 80.550781 196.523438 C 79.476562 195.285156 77.773438 194.804688 76.214844 195.296875 L 74.507812 195.835938 L 75.859375 194.664062 C 77.097656 193.59375 77.578125 191.890625 77.085938 190.328125 L 76.546875 188.625 L 77.71875 189.976562 C 78.789062 191.210938 80.492188 191.695312 82.054688 191.203125 Z M 83.761719 190.664062 "/></g></g></g><g clip-rule="nonzero" clip-path="url(#1ce1809d65)"><g clip-rule="nonzero" clip-path="url(#03e59281ef)"><g clip-rule="nonzero" clip-path="url(#cb4ad16a09)"><path style=" stroke:none;fill-rule:nonzero;fill:#ffffff;fill-opacity:1;" d="M 68.816406 207.238281 L 66.503906 208.878906 C 65.472656 209.773438 65.070312 211.199219 65.480469 212.503906 L 67.183594 216.167969 L 64.953125 212.800781 C 64.054688 211.765625 62.628906 211.363281 61.328125 211.777344 L 58.914062 212.777344 L 61.03125 211.246094 C 62.0625 210.351562 62.46875 208.925781 62.054688 207.621094 L 59.746094 202.871094 L 62.585938 207.324219 C 63.480469 208.359375 64.90625 208.761719 66.210938 208.351562 Z M 68.816406 207.238281 "/></g></g></g><g clip-rule="nonzero" clip-path="url(#ce3e17d7eb)"><g clip-rule="nonzero" clip-path="url(#e50d1d9850)"><g clip-rule="nonzero" clip-path="url(#ee1b8e8f15)"><path style=" stroke:none;fill-rule:nonzero;fill:#ffffff;fill-opacity:1;" d="M 77.347656 177.910156 L 76.910156 178.34375 C 76.511719 178.742188 76.421875 179.445312 76.679688 180.140625 L 76.960938 180.898438 L 76.464844 180.261719 C 76.011719 179.675781 75.359375 179.382812 74.8125 179.515625 L 74.214844 179.660156 L 74.652344 179.226562 C 75.050781 178.832031 75.144531 178.125 74.882812 177.433594 L 74.601562 176.675781 L 75.097656 177.3125 C 75.554688 177.894531 76.203125 178.1875 76.75 178.054688 Z M 77.347656 177.910156 "/></g></g></g><g clip-rule="nonzero" clip-path="url(#f5c76cb1ae)"><g clip-rule="nonzero" clip-path="url(#08c2d211ee)"><g clip-rule="nonzero" clip-path="url(#6f4c377bfe)"><path style=" stroke:none;fill-rule:nonzero;fill:#ffffff;fill-opacity:1;" d="M 48.941406 200.867188 L 48.582031 201.222656 C 48.257812 201.546875 48.183594 202.125 48.394531 202.695312 L 48.625 203.3125 L 48.21875 202.792969 C 47.847656 202.3125 47.316406 202.074219 46.867188 202.183594 L 46.375 202.300781 L 46.734375 201.945312 C 47.0625 201.621094 47.136719 201.042969 46.921875 200.476562 L 46.691406 199.855469 L 47.097656 200.378906 C 47.472656 200.855469 48.003906 201.09375 48.453125 200.988281 Z M 48.941406 200.867188 "/></g></g></g><g clip-rule="nonzero" clip-path="url(#18c926fb8c)"><g clip-rule="nonzero" clip-path="url(#ee44557bed)"><g clip-rule="nonzero" clip-path="url(#a606a838da)"><path style=" stroke:none;fill-rule:nonzero;fill:#ffffff;fill-opacity:1;" d="M 50.664062 182.257812 L 50.171875 182.746094 C 49.722656 183.195312 49.621094 183.992188 49.910156 184.773438 L 50.230469 185.628906 L 49.671875 184.90625 C 49.15625 184.25 48.425781 183.921875 47.808594 184.070312 L 47.132812 184.234375 L 47.625 183.746094 C 48.078125 183.296875 48.179688 182.5 47.886719 181.71875 L 47.566406 180.863281 L 48.128906 181.582031 C 48.640625 182.242188 49.375 182.570312 49.992188 182.421875 Z M 50.664062 182.257812 "/></g></g></g><g clip-rule="nonzero" clip-path="url(#8f0ee32d49)"><g clip-rule="nonzero" clip-path="url(#4eb2e1f85c)"><g clip-rule="nonzero" clip-path="url(#cac3071bb1)"><path style=" stroke:none;fill-rule:nonzero;fill:#ffffff;fill-opacity:1;" d="M 67.292969 174.480469 L 67.054688 174.71875 C 66.835938 174.9375 66.785156 175.324219 66.925781 175.707031 L 67.082031 176.121094 L 66.808594 175.769531 C 66.558594 175.449219 66.203125 175.289062 65.902344 175.363281 L 65.574219 175.441406 L 65.816406 175.203125 C 66.035156 174.988281 66.085938 174.601562 65.941406 174.21875 L 65.785156 173.804688 L 66.058594 174.152344 C 66.308594 174.472656 66.664062 174.632812 66.964844 174.5625 Z M 67.292969 174.480469 "/></g></g></g><g style="fill:#f48888;fill-opacity:1;"><g transform="translate(82.227211, 226.541862)"><path style="stroke:none" d="M -5.640625 -18.1875 C -6.410156 -19.78125 -7.125 -21.128906 -7.78125 -22.234375 C -8.4375 -23.347656 -9.039062 -24.273438 -9.59375 -25.015625 C -10.15625 -25.753906 -10.671875 -26.382812 -11.140625 -26.90625 C -11.617188 -27.4375 -12.054688 -27.910156 -12.453125 -28.328125 C -12.847656 -28.753906 -13.210938 -29.1875 -13.546875 -29.625 C -13.878906 -30.0625 -14.191406 -30.582031 -14.484375 -31.1875 C -14.742188 -31.726562 -14.8125 -32.207031 -14.6875 -32.625 C -14.5625 -33.039062 -14.328125 -33.398438 -13.984375 -33.703125 C -13.648438 -34.003906 -13.296875 -34.25 -12.921875 -34.4375 C -12.546875 -34.632812 -12.238281 -34.796875 -12 -34.921875 L 6.5 -43.859375 C 7.164062 -44.171875 7.8125 -44.21875 8.4375 -44 C 9.0625 -43.789062 9.535156 -43.347656 9.859375 -42.671875 L 13.03125 -36.125 C 13.21875 -35.71875 13.390625 -35.296875 13.546875 -34.859375 C 13.703125 -34.421875 13.726562 -34.015625 13.625 -33.640625 C 13.519531 -33.265625 13.203125 -32.945312 12.671875 -32.6875 C 12.128906 -32.425781 11.507812 -32.335938 10.8125 -32.421875 C 10.113281 -32.515625 9.359375 -32.675781 8.546875 -32.90625 C 7.734375 -33.132812 6.859375 -33.328125 5.921875 -33.484375 C 4.992188 -33.640625 4.015625 -33.679688 2.984375 -33.609375 C 1.953125 -33.535156 0.878906 -33.234375 -0.234375 -32.703125 C -0.671875 -32.492188 -0.914062 -32.207031 -0.96875 -31.84375 C -1.03125 -31.488281 -0.972656 -31.0625 -0.796875 -30.5625 C -0.617188 -30.070312 -0.375 -29.507812 -0.0625 -28.875 C 0.332031 -28.039062 0.726562 -27.382812 1.125 -26.90625 C 1.53125 -26.4375 2.007812 -26.195312 2.5625 -26.1875 C 3.113281 -26.175781 3.832031 -26.410156 4.71875 -26.890625 C 5.375 -27.265625 5.925781 -27.617188 6.375 -27.953125 C 6.832031 -28.296875 7.25 -28.613281 7.625 -28.90625 C 8.007812 -29.207031 8.441406 -29.472656 8.921875 -29.703125 C 9.523438 -29.992188 10.046875 -30.003906 10.484375 -29.734375 C 10.921875 -29.460938 11.242188 -29.101562 11.453125 -28.65625 L 13.6875 -24.046875 C 13.894531 -23.617188 13.972656 -23.140625 13.921875 -22.609375 C 13.867188 -22.085938 13.539062 -21.679688 12.9375 -21.390625 C 12.457031 -21.160156 11.984375 -20.988281 11.515625 -20.875 C 11.046875 -20.757812 10.535156 -20.632812 9.984375 -20.5 C 9.429688 -20.363281 8.804688 -20.148438 8.109375 -19.859375 C 7.453125 -19.597656 6.921875 -19.289062 6.515625 -18.9375 C 6.117188 -18.582031 5.894531 -18.132812 5.84375 -17.59375 C 5.800781 -17.050781 5.976562 -16.363281 6.375 -15.53125 C 6.726562 -14.800781 7.160156 -14.140625 7.671875 -13.546875 C 8.191406 -12.960938 8.726562 -12.398438 9.28125 -11.859375 C 9.84375 -11.316406 10.375 -10.757812 10.875 -10.1875 C 11.375 -9.625 11.78125 -9.015625 12.09375 -8.359375 C 12.363281 -7.796875 12.453125 -7.316406 12.359375 -6.921875 C 12.265625 -6.535156 12.070312 -6.203125 11.78125 -5.921875 C 11.5 -5.648438 11.1875 -5.425781 10.84375 -5.25 C 10.507812 -5.082031 10.21875 -4.9375 9.96875 -4.8125 L 3.578125 -1.71875 C 3.328125 -1.601562 3.03125 -1.46875 2.6875 -1.3125 C 2.34375 -1.15625 1.96875 -1.046875 1.5625 -0.984375 C 1.164062 -0.929688 0.785156 -0.988281 0.421875 -1.15625 C 0.0664062 -1.332031 -0.242188 -1.703125 -0.515625 -2.265625 C -0.890625 -3.035156 -1.164062 -3.78125 -1.34375 -4.5 C -1.53125 -5.21875 -1.691406 -5.976562 -1.828125 -6.78125 C -1.960938 -7.59375 -2.148438 -8.519531 -2.390625 -9.5625 C -2.628906 -10.613281 -3 -11.835938 -3.5 -13.234375 C -4.007812 -14.628906 -4.722656 -16.28125 -5.640625 -18.1875 Z M -5.640625 -18.1875 "/></g></g><g style="fill:#f48888;fill-opacity:1;"><g transform="translate(106.534159, 214.771161)"><path style="stroke:none" d="M -2.28125 -12.53125 C -2.675781 -14.25 -2.832031 -15.804688 -2.75 -17.203125 C -2.675781 -18.597656 -2.414062 -19.84375 -1.96875 -20.9375 C -1.53125 -22.039062 -0.976562 -22.992188 -0.3125 -23.796875 C 0.34375 -24.609375 1.054688 -25.300781 1.828125 -25.875 C 2.609375 -26.445312 3.375 -26.898438 4.125 -27.234375 C 4.882812 -27.578125 5.5625 -27.820312 6.15625 -27.96875 C 7.226562 -28.238281 8.085938 -28.414062 8.734375 -28.5 C 9.390625 -28.582031 9.9375 -28.640625 10.375 -28.671875 C 10.8125 -28.703125 11.238281 -28.769531 11.65625 -28.875 C 12.519531 -29.070312 13.207031 -29.265625 13.71875 -29.453125 C 14.226562 -29.648438 14.664062 -29.816406 15.03125 -29.953125 C 15.40625 -30.097656 15.785156 -30.21875 16.171875 -30.3125 C 16.429688 -30.375 16.742188 -30.414062 17.109375 -30.4375 C 17.484375 -30.457031 17.863281 -30.40625 18.25 -30.28125 C 18.644531 -30.164062 19 -29.957031 19.3125 -29.65625 C 19.632812 -29.351562 19.867188 -28.898438 20.015625 -28.296875 C 20.148438 -27.722656 20.203125 -27.097656 20.171875 -26.421875 C 20.148438 -25.753906 20.117188 -25.015625 20.078125 -24.203125 C 20.035156 -23.390625 20.039062 -22.46875 20.09375 -21.4375 C 20.15625 -20.40625 20.34375 -19.226562 20.65625 -17.90625 C 20.925781 -16.769531 21.21875 -15.816406 21.53125 -15.046875 C 21.851562 -14.273438 22.175781 -13.613281 22.5 -13.0625 C 22.820312 -12.519531 23.128906 -12.050781 23.421875 -11.65625 C 23.722656 -11.269531 23.976562 -10.894531 24.1875 -10.53125 C 24.40625 -10.164062 24.566406 -9.757812 24.671875 -9.3125 C 24.835938 -8.582031 24.707031 -7.867188 24.28125 -7.171875 C 23.851562 -6.472656 23.203125 -5.859375 22.328125 -5.328125 C 21.460938 -4.804688 20.441406 -4.410156 19.265625 -4.140625 C 18.742188 -4.015625 18.328125 -3.988281 18.015625 -4.0625 C 17.710938 -4.144531 17.445312 -4.257812 17.21875 -4.40625 C 17 -4.5625 16.773438 -4.691406 16.546875 -4.796875 C 16.316406 -4.898438 16.035156 -4.910156 15.703125 -4.828125 C 15.335938 -4.742188 15.03125 -4.59375 14.78125 -4.375 C 14.539062 -4.15625 14.265625 -3.910156 13.953125 -3.640625 C 13.648438 -3.378906 13.25 -3.113281 12.75 -2.84375 C 12.25 -2.570312 11.570312 -2.332031 10.71875 -2.125 C 9.34375 -1.8125 7.972656 -1.8125 6.609375 -2.125 C 5.253906 -2.445312 3.984375 -3.066406 2.796875 -3.984375 C 1.617188 -4.898438 0.59375 -6.078125 -0.28125 -7.515625 C -1.164062 -8.953125 -1.832031 -10.625 -2.28125 -12.53125 Z M 7.890625 -21.484375 C 7.222656 -21.328125 6.820312 -20.632812 6.6875 -19.40625 C 6.550781 -18.175781 6.703125 -16.625 7.140625 -14.75 C 7.578125 -12.894531 8.128906 -11.441406 8.796875 -10.390625 C 9.460938 -9.347656 10.128906 -8.90625 10.796875 -9.0625 C 11.453125 -9.207031 11.847656 -9.898438 11.984375 -11.140625 C 12.128906 -12.378906 11.984375 -13.925781 11.546875 -15.78125 C 11.109375 -17.65625 10.550781 -19.109375 9.875 -20.140625 C 9.207031 -21.179688 8.546875 -21.628906 7.890625 -21.484375 Z M 7.890625 -21.484375 "/></g></g><g style="fill:#f48888;fill-opacity:1;"><g transform="translate(131.037223, 208.826808)"><path style="stroke:none" d="M 0.21875 -2.265625 C 0.207031 -2.941406 0.253906 -3.515625 0.359375 -3.984375 C 0.460938 -4.460938 0.601562 -4.941406 0.78125 -5.421875 C 0.96875 -5.910156 1.164062 -6.472656 1.375 -7.109375 C 1.582031 -7.753906 1.78125 -8.570312 1.96875 -9.5625 C 2.15625 -10.550781 2.320312 -11.796875 2.46875 -13.296875 C 2.613281 -14.804688 2.707031 -16.660156 2.75 -18.859375 C 2.726562 -20.609375 2.59375 -22.21875 2.34375 -23.6875 C 2.101562 -25.15625 1.816406 -26.507812 1.484375 -27.75 C 1.148438 -29 0.859375 -30.171875 0.609375 -31.265625 C 0.367188 -32.359375 0.242188 -33.40625 0.234375 -34.40625 C 0.222656 -35.007812 0.363281 -35.46875 0.65625 -35.78125 C 0.957031 -36.101562 1.320312 -36.328125 1.75 -36.453125 C 2.175781 -36.585938 2.601562 -36.660156 3.03125 -36.671875 C 3.457031 -36.691406 3.804688 -36.707031 4.078125 -36.71875 L 10.625 -36.796875 C 10.894531 -36.796875 11.238281 -36.789062 11.65625 -36.78125 C 12.082031 -36.78125 12.515625 -36.71875 12.953125 -36.59375 C 13.390625 -36.476562 13.753906 -36.265625 14.046875 -35.953125 C 14.347656 -35.640625 14.503906 -35.179688 14.515625 -34.578125 C 14.523438 -33.628906 14.425781 -32.695312 14.21875 -31.78125 C 14.007812 -30.863281 13.757812 -29.972656 13.46875 -29.109375 C 13.1875 -28.242188 12.9375 -27.398438 12.71875 -26.578125 C 12.507812 -25.765625 12.410156 -24.972656 12.421875 -24.203125 C 12.429688 -23.765625 12.441406 -23.476562 12.453125 -23.34375 C 12.460938 -23.207031 12.535156 -23.140625 12.671875 -23.140625 C 12.804688 -23.140625 13.019531 -23.285156 13.3125 -23.578125 C 13.601562 -23.867188 13.992188 -24.203125 14.484375 -24.578125 C 14.972656 -24.960938 15.582031 -25.300781 16.3125 -25.59375 C 17.039062 -25.894531 17.894531 -26.050781 18.875 -26.0625 C 21.300781 -26.09375 23.234375 -25.019531 24.671875 -22.84375 C 26.109375 -20.675781 26.851562 -17.410156 26.90625 -13.046875 C 26.9375 -10.234375 26.5625 -7.84375 25.78125 -5.875 C 25.007812 -3.914062 23.914062 -2.425781 22.5 -1.40625 C 21.09375 -0.382812 19.4375 0.132812 17.53125 0.15625 C 16.601562 0.164062 15.816406 0.125 15.171875 0.03125 C 14.523438 -0.0507812 13.9375 -0.160156 13.40625 -0.296875 C 12.882812 -0.441406 12.335938 -0.5625 11.765625 -0.65625 C 11.191406 -0.75 10.503906 -0.789062 9.703125 -0.78125 C 8.972656 -0.769531 8.304688 -0.703125 7.703125 -0.578125 C 7.097656 -0.460938 6.507812 -0.347656 5.9375 -0.234375 C 5.375 -0.117188 4.769531 -0.0546875 4.125 -0.046875 C 3.851562 -0.046875 3.503906 -0.046875 3.078125 -0.046875 C 2.648438 -0.0546875 2.21875 -0.117188 1.78125 -0.234375 C 1.351562 -0.359375 0.988281 -0.570312 0.6875 -0.875 C 0.382812 -1.1875 0.226562 -1.648438 0.21875 -2.265625 Z M 12.5625 -12.828125 C 12.582031 -10.929688 12.804688 -9.398438 13.234375 -8.234375 C 13.671875 -7.066406 14.226562 -6.488281 14.90625 -6.5 C 15.59375 -6.507812 16.132812 -7.101562 16.53125 -8.28125 C 16.925781 -9.457031 17.113281 -10.992188 17.09375 -12.890625 C 17.070312 -14.804688 16.847656 -16.347656 16.421875 -17.515625 C 15.992188 -18.679688 15.4375 -19.257812 14.75 -19.25 C 14.070312 -19.238281 13.53125 -18.644531 13.125 -17.46875 C 12.726562 -16.289062 12.539062 -14.742188 12.5625 -12.828125 Z M 12.5625 -12.828125 "/></g></g><g style="fill:#f48888;fill-opacity:1;"><g transform="translate(157.98355, 208.989285)"><path style="stroke:none" d="M 0.609375 -2.1875 C 0.722656 -2.851562 0.867188 -3.410156 1.046875 -3.859375 C 1.234375 -4.316406 1.453125 -4.765625 1.703125 -5.203125 C 1.960938 -5.648438 2.238281 -6.175781 2.53125 -6.78125 C 2.832031 -7.382812 3.144531 -8.15625 3.46875 -9.09375 C 3.800781 -10.039062 4.144531 -11.25 4.5 -12.71875 C 4.851562 -14.1875 5.207031 -16.003906 5.5625 -18.171875 C 5.84375 -19.921875 6.03125 -21.4375 6.125 -22.71875 C 6.21875 -24 6.25 -25.109375 6.21875 -26.046875 C 6.195312 -26.992188 6.144531 -27.8125 6.0625 -28.5 C 5.976562 -29.1875 5.890625 -29.816406 5.796875 -30.390625 C 5.710938 -30.972656 5.660156 -31.535156 5.640625 -32.078125 C 5.617188 -32.628906 5.660156 -33.234375 5.765625 -33.890625 C 5.859375 -34.492188 6.078125 -34.925781 6.421875 -35.1875 C 6.765625 -35.457031 7.160156 -35.617188 7.609375 -35.671875 C 8.054688 -35.734375 8.488281 -35.734375 8.90625 -35.671875 C 9.332031 -35.617188 9.679688 -35.570312 9.953125 -35.53125 L 16.421875 -34.46875 C 16.691406 -34.425781 17.035156 -34.363281 17.453125 -34.28125 C 17.878906 -34.207031 18.296875 -34.070312 18.703125 -33.875 C 19.109375 -33.6875 19.429688 -33.410156 19.671875 -33.046875 C 19.910156 -32.691406 19.984375 -32.210938 19.890625 -31.609375 C 19.785156 -30.953125 19.632812 -30.363281 19.4375 -29.84375 C 19.238281 -29.332031 19.003906 -28.816406 18.734375 -28.296875 C 18.472656 -27.785156 18.191406 -27.210938 17.890625 -26.578125 C 17.585938 -25.941406 17.273438 -25.179688 16.953125 -24.296875 C 16.640625 -23.421875 16.320312 -22.359375 16 -21.109375 C 15.6875 -19.859375 15.390625 -18.359375 15.109375 -16.609375 C 14.753906 -14.441406 14.507812 -12.609375 14.375 -11.109375 C 14.25 -9.609375 14.191406 -8.351562 14.203125 -7.34375 C 14.222656 -6.34375 14.273438 -5.515625 14.359375 -4.859375 C 14.453125 -4.203125 14.546875 -3.617188 14.640625 -3.109375 C 14.742188 -2.609375 14.8125 -2.113281 14.84375 -1.625 C 14.882812 -1.144531 14.847656 -0.570312 14.734375 0.09375 C 14.640625 0.695312 14.421875 1.128906 14.078125 1.390625 C 13.734375 1.648438 13.335938 1.804688 12.890625 1.859375 C 12.441406 1.921875 12.003906 1.921875 11.578125 1.859375 C 11.160156 1.804688 10.816406 1.757812 10.546875 1.71875 L 4.078125 0.65625 C 3.804688 0.613281 3.457031 0.550781 3.03125 0.46875 C 2.613281 0.394531 2.203125 0.257812 1.796875 0.0625 C 1.390625 -0.125 1.066406 -0.394531 0.828125 -0.75 C 0.585938 -1.101562 0.515625 -1.582031 0.609375 -2.1875 Z M 0.609375 -2.1875 "/></g></g><g style="fill:#f48888;fill-opacity:1;"><g transform="translate(172.13105, 210.823488)"><path style="stroke:none" d="M 4.65625 -11.859375 C 5.164062 -13.390625 5.929688 -14.804688 6.953125 -16.109375 C 7.972656 -17.410156 9.210938 -18.476562 10.671875 -19.3125 C 12.140625 -20.15625 13.8125 -20.648438 15.6875 -20.796875 C 17.5625 -20.953125 19.613281 -20.65625 21.84375 -19.90625 C 23.09375 -19.488281 24.234375 -18.929688 25.265625 -18.234375 C 26.304688 -17.546875 27.164062 -16.734375 27.84375 -15.796875 C 28.519531 -14.859375 28.960938 -13.828125 29.171875 -12.703125 C 29.378906 -11.578125 29.269531 -10.378906 28.84375 -9.109375 C 28.375 -7.710938 27.75 -6.570312 26.96875 -5.6875 C 26.195312 -4.800781 25.335938 -4.125 24.390625 -3.65625 C 23.441406 -3.1875 22.453125 -2.867188 21.421875 -2.703125 C 20.398438 -2.535156 19.398438 -2.46875 18.421875 -2.5 C 17.492188 -2.519531 16.71875 -2.640625 16.09375 -2.859375 C 15.46875 -3.085938 14.96875 -3.265625 14.59375 -3.390625 C 14.382812 -3.460938 14.21875 -3.492188 14.09375 -3.484375 C 13.976562 -3.484375 13.898438 -3.414062 13.859375 -3.28125 C 13.765625 -3.007812 13.832031 -2.75 14.0625 -2.5 C 14.289062 -2.25 14.585938 -2.019531 14.953125 -1.8125 C 15.328125 -1.601562 15.671875 -1.445312 15.984375 -1.34375 C 16.847656 -1.050781 17.613281 -0.910156 18.28125 -0.921875 C 18.957031 -0.941406 19.566406 -1.015625 20.109375 -1.140625 C 20.648438 -1.273438 21.164062 -1.375 21.65625 -1.4375 C 22.15625 -1.507812 22.648438 -1.46875 23.140625 -1.3125 C 23.691406 -1.125 24.117188 -0.832031 24.421875 -0.4375 C 24.722656 -0.0390625 24.929688 0.40625 25.046875 0.90625 C 25.171875 1.40625 25.21875 1.890625 25.1875 2.359375 C 25.15625 2.828125 25.078125 3.238281 24.953125 3.59375 C 24.710938 4.3125 24.125 4.910156 23.1875 5.390625 C 22.257812 5.878906 20.984375 6.117188 19.359375 6.109375 C 17.742188 6.097656 15.789062 5.707031 13.5 4.9375 C 11.375 4.21875 9.617188 3.238281 8.234375 2 C 6.859375 0.757812 5.820312 -0.632812 5.125 -2.1875 C 4.425781 -3.75 4.039062 -5.363281 3.96875 -7.03125 C 3.90625 -8.707031 4.132812 -10.316406 4.65625 -11.859375 Z M 14.828125 -11.296875 C 14.078125 -10.398438 13.648438 -9.613281 13.546875 -8.9375 C 13.453125 -8.269531 13.703125 -7.832031 14.296875 -7.625 C 14.910156 -7.425781 15.628906 -7.539062 16.453125 -7.96875 C 17.285156 -8.394531 18.078125 -9.054688 18.828125 -9.953125 C 19.597656 -10.859375 20.03125 -11.644531 20.125 -12.3125 C 20.21875 -12.988281 19.957031 -13.429688 19.34375 -13.640625 C 18.757812 -13.835938 18.050781 -13.71875 17.21875 -13.28125 C 16.394531 -12.851562 15.597656 -12.191406 14.828125 -11.296875 Z M 14.828125 -11.296875 "/></g></g><g style="fill:#ffffff;fill-opacity:1;"><g transform="translate(82.666656, 225.012477)"><path style="stroke:none" d="M -5.640625 -18.1875 C -6.410156 -19.78125 -7.125 -21.128906 -7.78125 -22.234375 C -8.4375 -23.347656 -9.039062 -24.273438 -9.59375 -25.015625 C -10.15625 -25.753906 -10.671875 -26.382812 -11.140625 -26.90625 C -11.617188 -27.4375 -12.054688 -27.910156 -12.453125 -28.328125 C -12.847656 -28.753906 -13.210938 -29.1875 -13.546875 -29.625 C -13.878906 -30.0625 -14.191406 -30.582031 -14.484375 -31.1875 C -14.742188 -31.726562 -14.8125 -32.207031 -14.6875 -32.625 C -14.5625 -33.039062 -14.328125 -33.398438 -13.984375 -33.703125 C -13.648438 -34.003906 -13.296875 -34.25 -12.921875 -34.4375 C -12.546875 -34.632812 -12.238281 -34.796875 -12 -34.921875 L 6.5 -43.859375 C 7.164062 -44.171875 7.8125 -44.21875 8.4375 -44 C 9.0625 -43.789062 9.535156 -43.347656 9.859375 -42.671875 L 13.03125 -36.125 C 13.21875 -35.71875 13.390625 -35.296875 13.546875 -34.859375 C 13.703125 -34.421875 13.726562 -34.015625 13.625 -33.640625 C 13.519531 -33.265625 13.203125 -32.945312 12.671875 -32.6875 C 12.128906 -32.425781 11.507812 -32.335938 10.8125 -32.421875 C 10.113281 -32.515625 9.359375 -32.675781 8.546875 -32.90625 C 7.734375 -33.132812 6.859375 -33.328125 5.921875 -33.484375 C 4.992188 -33.640625 4.015625 -33.679688 2.984375 -33.609375 C 1.953125 -33.535156 0.878906 -33.234375 -0.234375 -32.703125 C -0.671875 -32.492188 -0.914062 -32.207031 -0.96875 -31.84375 C -1.03125 -31.488281 -0.972656 -31.0625 -0.796875 -30.5625 C -0.617188 -30.070312 -0.375 -29.507812 -0.0625 -28.875 C 0.332031 -28.039062 0.726562 -27.382812 1.125 -26.90625 C 1.53125 -26.4375 2.007812 -26.195312 2.5625 -26.1875 C 3.113281 -26.175781 3.832031 -26.410156 4.71875 -26.890625 C 5.375 -27.265625 5.925781 -27.617188 6.375 -27.953125 C 6.832031 -28.296875 7.25 -28.613281 7.625 -28.90625 C 8.007812 -29.207031 8.441406 -29.472656 8.921875 -29.703125 C 9.523438 -29.992188 10.046875 -30.003906 10.484375 -29.734375 C 10.921875 -29.460938 11.242188 -29.101562 11.453125 -28.65625 L 13.6875 -24.046875 C 13.894531 -23.617188 13.972656 -23.140625 13.921875 -22.609375 C 13.867188 -22.085938 13.539062 -21.679688 12.9375 -21.390625 C 12.457031 -21.160156 11.984375 -20.988281 11.515625 -20.875 C 11.046875 -20.757812 10.535156 -20.632812 9.984375 -20.5 C 9.429688 -20.363281 8.804688 -20.148438 8.109375 -19.859375 C 7.453125 -19.597656 6.921875 -19.289062 6.515625 -18.9375 C 6.117188 -18.582031 5.894531 -18.132812 5.84375 -17.59375 C 5.800781 -17.050781 5.976562 -16.363281 6.375 -15.53125 C 6.726562 -14.800781 7.160156 -14.140625 7.671875 -13.546875 C 8.191406 -12.960938 8.726562 -12.398438 9.28125 -11.859375 C 9.84375 -11.316406 10.375 -10.757812 10.875 -10.1875 C 11.375 -9.625 11.78125 -9.015625 12.09375 -8.359375 C 12.363281 -7.796875 12.453125 -7.316406 12.359375 -6.921875 C 12.265625 -6.535156 12.070312 -6.203125 11.78125 -5.921875 C 11.5 -5.648438 11.1875 -5.425781 10.84375 -5.25 C 10.507812 -5.082031 10.21875 -4.9375 9.96875 -4.8125 L 3.578125 -1.71875 C 3.328125 -1.601562 3.03125 -1.46875 2.6875 -1.3125 C 2.34375 -1.15625 1.96875 -1.046875 1.5625 -0.984375 C 1.164062 -0.929688 0.785156 -0.988281 0.421875 -1.15625 C 0.0664062 -1.332031 -0.242188 -1.703125 -0.515625 -2.265625 C -0.890625 -3.035156 -1.164062 -3.78125 -1.34375 -4.5 C -1.53125 -5.21875 -1.691406 -5.976562 -1.828125 -6.78125 C -1.960938 -7.59375 -2.148438 -8.519531 -2.390625 -9.5625 C -2.628906 -10.613281 -3 -11.835938 -3.5 -13.234375 C -4.007812 -14.628906 -4.722656 -16.28125 -5.640625 -18.1875 Z M -5.640625 -18.1875 "/></g></g><g style="fill:#ffffff;fill-opacity:1;"><g transform="translate(106.973596, 213.241762)"><path style="stroke:none" d="M -2.28125 -12.53125 C -2.675781 -14.25 -2.832031 -15.804688 -2.75 -17.203125 C -2.675781 -18.597656 -2.414062 -19.84375 -1.96875 -20.9375 C -1.53125 -22.039062 -0.976562 -22.992188 -0.3125 -23.796875 C 0.34375 -24.609375 1.054688 -25.300781 1.828125 -25.875 C 2.609375 -26.445312 3.375 -26.898438 4.125 -27.234375 C 4.882812 -27.578125 5.5625 -27.820312 6.15625 -27.96875 C 7.226562 -28.238281 8.085938 -28.414062 8.734375 -28.5 C 9.390625 -28.582031 9.9375 -28.640625 10.375 -28.671875 C 10.8125 -28.703125 11.238281 -28.769531 11.65625 -28.875 C 12.519531 -29.070312 13.207031 -29.265625 13.71875 -29.453125 C 14.226562 -29.648438 14.664062 -29.816406 15.03125 -29.953125 C 15.40625 -30.097656 15.785156 -30.21875 16.171875 -30.3125 C 16.429688 -30.375 16.742188 -30.414062 17.109375 -30.4375 C 17.484375 -30.457031 17.863281 -30.40625 18.25 -30.28125 C 18.644531 -30.164062 19 -29.957031 19.3125 -29.65625 C 19.632812 -29.351562 19.867188 -28.898438 20.015625 -28.296875 C 20.148438 -27.722656 20.203125 -27.097656 20.171875 -26.421875 C 20.148438 -25.753906 20.117188 -25.015625 20.078125 -24.203125 C 20.035156 -23.390625 20.039062 -22.46875 20.09375 -21.4375 C 20.15625 -20.40625 20.34375 -19.226562 20.65625 -17.90625 C 20.925781 -16.769531 21.21875 -15.816406 21.53125 -15.046875 C 21.851562 -14.273438 22.175781 -13.613281 22.5 -13.0625 C 22.820312 -12.519531 23.128906 -12.050781 23.421875 -11.65625 C 23.722656 -11.269531 23.976562 -10.894531 24.1875 -10.53125 C 24.40625 -10.164062 24.566406 -9.757812 24.671875 -9.3125 C 24.835938 -8.582031 24.707031 -7.867188 24.28125 -7.171875 C 23.851562 -6.472656 23.203125 -5.859375 22.328125 -5.328125 C 21.460938 -4.804688 20.441406 -4.410156 19.265625 -4.140625 C 18.742188 -4.015625 18.328125 -3.988281 18.015625 -4.0625 C 17.710938 -4.144531 17.445312 -4.257812 17.21875 -4.40625 C 17 -4.5625 16.773438 -4.691406 16.546875 -4.796875 C 16.316406 -4.898438 16.035156 -4.910156 15.703125 -4.828125 C 15.335938 -4.742188 15.03125 -4.59375 14.78125 -4.375 C 14.539062 -4.15625 14.265625 -3.910156 13.953125 -3.640625 C 13.648438 -3.378906 13.25 -3.113281 12.75 -2.84375 C 12.25 -2.570312 11.570312 -2.332031 10.71875 -2.125 C 9.34375 -1.8125 7.972656 -1.8125 6.609375 -2.125 C 5.253906 -2.445312 3.984375 -3.066406 2.796875 -3.984375 C 1.617188 -4.898438 0.59375 -6.078125 -0.28125 -7.515625 C -1.164062 -8.953125 -1.832031 -10.625 -2.28125 -12.53125 Z M 7.890625 -21.484375 C 7.222656 -21.328125 6.820312 -20.632812 6.6875 -19.40625 C 6.550781 -18.175781 6.703125 -16.625 7.140625 -14.75 C 7.578125 -12.894531 8.128906 -11.441406 8.796875 -10.390625 C 9.460938 -9.347656 10.128906 -8.90625 10.796875 -9.0625 C 11.453125 -9.207031 11.847656 -9.898438 11.984375 -11.140625 C 12.128906 -12.378906 11.984375 -13.925781 11.546875 -15.78125 C 11.109375 -17.65625 10.550781 -19.109375 9.875 -20.140625 C 9.207031 -21.179688 8.546875 -21.628906 7.890625 -21.484375 Z M 7.890625 -21.484375 "/></g></g><g style="fill:#ffffff;fill-opacity:1;"><g transform="translate(131.476663, 207.297408)"><path style="stroke:none" d="M 0.21875 -2.265625 C 0.207031 -2.941406 0.253906 -3.515625 0.359375 -3.984375 C 0.460938 -4.460938 0.601562 -4.941406 0.78125 -5.421875 C 0.96875 -5.910156 1.164062 -6.472656 1.375 -7.109375 C 1.582031 -7.753906 1.78125 -8.570312 1.96875 -9.5625 C 2.15625 -10.550781 2.320312 -11.796875 2.46875 -13.296875 C 2.613281 -14.804688 2.707031 -16.660156 2.75 -18.859375 C 2.726562 -20.609375 2.59375 -22.21875 2.34375 -23.6875 C 2.101562 -25.15625 1.816406 -26.507812 1.484375 -27.75 C 1.148438 -29 0.859375 -30.171875 0.609375 -31.265625 C 0.367188 -32.359375 0.242188 -33.40625 0.234375 -34.40625 C 0.222656 -35.007812 0.363281 -35.46875 0.65625 -35.78125 C 0.957031 -36.101562 1.320312 -36.328125 1.75 -36.453125 C 2.175781 -36.585938 2.601562 -36.660156 3.03125 -36.671875 C 3.457031 -36.691406 3.804688 -36.707031 4.078125 -36.71875 L 10.625 -36.796875 C 10.894531 -36.796875 11.238281 -36.789062 11.65625 -36.78125 C 12.082031 -36.78125 12.515625 -36.71875 12.953125 -36.59375 C 13.390625 -36.476562 13.753906 -36.265625 14.046875 -35.953125 C 14.347656 -35.640625 14.503906 -35.179688 14.515625 -34.578125 C 14.523438 -33.628906 14.425781 -32.695312 14.21875 -31.78125 C 14.007812 -30.863281 13.757812 -29.972656 13.46875 -29.109375 C 13.1875 -28.242188 12.9375 -27.398438 12.71875 -26.578125 C 12.507812 -25.765625 12.410156 -24.972656 12.421875 -24.203125 C 12.429688 -23.765625 12.441406 -23.476562 12.453125 -23.34375 C 12.460938 -23.207031 12.535156 -23.140625 12.671875 -23.140625 C 12.804688 -23.140625 13.019531 -23.285156 13.3125 -23.578125 C 13.601562 -23.867188 13.992188 -24.203125 14.484375 -24.578125 C 14.972656 -24.960938 15.582031 -25.300781 16.3125 -25.59375 C 17.039062 -25.894531 17.894531 -26.050781 18.875 -26.0625 C 21.300781 -26.09375 23.234375 -25.019531 24.671875 -22.84375 C 26.109375 -20.675781 26.851562 -17.410156 26.90625 -13.046875 C 26.9375 -10.234375 26.5625 -7.84375 25.78125 -5.875 C 25.007812 -3.914062 23.914062 -2.425781 22.5 -1.40625 C 21.09375 -0.382812 19.4375 0.132812 17.53125 0.15625 C 16.601562 0.164062 15.816406 0.125 15.171875 0.03125 C 14.523438 -0.0507812 13.9375 -0.160156 13.40625 -0.296875 C 12.882812 -0.441406 12.335938 -0.5625 11.765625 -0.65625 C 11.191406 -0.75 10.503906 -0.789062 9.703125 -0.78125 C 8.972656 -0.769531 8.304688 -0.703125 7.703125 -0.578125 C 7.097656 -0.460938 6.507812 -0.347656 5.9375 -0.234375 C 5.375 -0.117188 4.769531 -0.0546875 4.125 -0.046875 C 3.851562 -0.046875 3.503906 -0.046875 3.078125 -0.046875 C 2.648438 -0.0546875 2.21875 -0.117188 1.78125 -0.234375 C 1.351562 -0.359375 0.988281 -0.570312 0.6875 -0.875 C 0.382812 -1.1875 0.226562 -1.648438 0.21875 -2.265625 Z M 12.5625 -12.828125 C 12.582031 -10.929688 12.804688 -9.398438 13.234375 -8.234375 C 13.671875 -7.066406 14.226562 -6.488281 14.90625 -6.5 C 15.59375 -6.507812 16.132812 -7.101562 16.53125 -8.28125 C 16.925781 -9.457031 17.113281 -10.992188 17.09375 -12.890625 C 17.070312 -14.804688 16.847656 -16.347656 16.421875 -17.515625 C 15.992188 -18.679688 15.4375 -19.257812 14.75 -19.25 C 14.070312 -19.238281 13.53125 -18.644531 13.125 -17.46875 C 12.726562 -16.289062 12.539062 -14.742188 12.5625 -12.828125 Z M 12.5625 -12.828125 "/></g></g><g style="fill:#ffffff;fill-opacity:1;"><g transform="translate(158.423002, 207.459885)"><path style="stroke:none" d="M 0.609375 -2.1875 C 0.722656 -2.851562 0.867188 -3.410156 1.046875 -3.859375 C 1.234375 -4.316406 1.453125 -4.765625 1.703125 -5.203125 C 1.960938 -5.648438 2.238281 -6.175781 2.53125 -6.78125 C 2.832031 -7.382812 3.144531 -8.15625 3.46875 -9.09375 C 3.800781 -10.039062 4.144531 -11.25 4.5 -12.71875 C 4.851562 -14.1875 5.207031 -16.003906 5.5625 -18.171875 C 5.84375 -19.921875 6.03125 -21.4375 6.125 -22.71875 C 6.21875 -24 6.25 -25.109375 6.21875 -26.046875 C 6.195312 -26.992188 6.144531 -27.8125 6.0625 -28.5 C 5.976562 -29.1875 5.890625 -29.816406 5.796875 -30.390625 C 5.710938 -30.972656 5.660156 -31.535156 5.640625 -32.078125 C 5.617188 -32.628906 5.660156 -33.234375 5.765625 -33.890625 C 5.859375 -34.492188 6.078125 -34.925781 6.421875 -35.1875 C 6.765625 -35.457031 7.160156 -35.617188 7.609375 -35.671875 C 8.054688 -35.734375 8.488281 -35.734375 8.90625 -35.671875 C 9.332031 -35.617188 9.679688 -35.570312 9.953125 -35.53125 L 16.421875 -34.46875 C 16.691406 -34.425781 17.035156 -34.363281 17.453125 -34.28125 C 17.878906 -34.207031 18.296875 -34.070312 18.703125 -33.875 C 19.109375 -33.6875 19.429688 -33.410156 19.671875 -33.046875 C 19.910156 -32.691406 19.984375 -32.210938 19.890625 -31.609375 C 19.785156 -30.953125 19.632812 -30.363281 19.4375 -29.84375 C 19.238281 -29.332031 19.003906 -28.816406 18.734375 -28.296875 C 18.472656 -27.785156 18.191406 -27.210938 17.890625 -26.578125 C 17.585938 -25.941406 17.273438 -25.179688 16.953125 -24.296875 C 16.640625 -23.421875 16.320312 -22.359375 16 -21.109375 C 15.6875 -19.859375 15.390625 -18.359375 15.109375 -16.609375 C 14.753906 -14.441406 14.507812 -12.609375 14.375 -11.109375 C 14.25 -9.609375 14.191406 -8.351562 14.203125 -7.34375 C 14.222656 -6.34375 14.273438 -5.515625 14.359375 -4.859375 C 14.453125 -4.203125 14.546875 -3.617188 14.640625 -3.109375 C 14.742188 -2.609375 14.8125 -2.113281 14.84375 -1.625 C 14.882812 -1.144531 14.847656 -0.570312 14.734375 0.09375 C 14.640625 0.695312 14.421875 1.128906 14.078125 1.390625 C 13.734375 1.648438 13.335938 1.804688 12.890625 1.859375 C 12.441406 1.921875 12.003906 1.921875 11.578125 1.859375 C 11.160156 1.804688 10.816406 1.757812 10.546875 1.71875 L 4.078125 0.65625 C 3.804688 0.613281 3.457031 0.550781 3.03125 0.46875 C 2.613281 0.394531 2.203125 0.257812 1.796875 0.0625 C 1.390625 -0.125 1.066406 -0.394531 0.828125 -0.75 C 0.585938 -1.101562 0.515625 -1.582031 0.609375 -2.1875 Z M 0.609375 -2.1875 "/></g></g><g style="fill:#ffffff;fill-opacity:1;"><g transform="translate(172.570487, 209.294091)"><path style="stroke:none" d="M 4.65625 -11.859375 C 5.164062 -13.390625 5.929688 -14.804688 6.953125 -16.109375 C 7.972656 -17.410156 9.210938 -18.476562 10.671875 -19.3125 C 12.140625 -20.15625 13.8125 -20.648438 15.6875 -20.796875 C 17.5625 -20.953125 19.613281 -20.65625 21.84375 -19.90625 C 23.09375 -19.488281 24.234375 -18.929688 25.265625 -18.234375 C 26.304688 -17.546875 27.164062 -16.734375 27.84375 -15.796875 C 28.519531 -14.859375 28.960938 -13.828125 29.171875 -12.703125 C 29.378906 -11.578125 29.269531 -10.378906 28.84375 -9.109375 C 28.375 -7.710938 27.75 -6.570312 26.96875 -5.6875 C 26.195312 -4.800781 25.335938 -4.125 24.390625 -3.65625 C 23.441406 -3.1875 22.453125 -2.867188 21.421875 -2.703125 C 20.398438 -2.535156 19.398438 -2.46875 18.421875 -2.5 C 17.492188 -2.519531 16.71875 -2.640625 16.09375 -2.859375 C 15.46875 -3.085938 14.96875 -3.265625 14.59375 -3.390625 C 14.382812 -3.460938 14.21875 -3.492188 14.09375 -3.484375 C 13.976562 -3.484375 13.898438 -3.414062 13.859375 -3.28125 C 13.765625 -3.007812 13.832031 -2.75 14.0625 -2.5 C 14.289062 -2.25 14.585938 -2.019531 14.953125 -1.8125 C 15.328125 -1.601562 15.671875 -1.445312 15.984375 -1.34375 C 16.847656 -1.050781 17.613281 -0.910156 18.28125 -0.921875 C 18.957031 -0.941406 19.566406 -1.015625 20.109375 -1.140625 C 20.648438 -1.273438 21.164062 -1.375 21.65625 -1.4375 C 22.15625 -1.507812 22.648438 -1.46875 23.140625 -1.3125 C 23.691406 -1.125 24.117188 -0.832031 24.421875 -0.4375 C 24.722656 -0.0390625 24.929688 0.40625 25.046875 0.90625 C 25.171875 1.40625 25.21875 1.890625 25.1875 2.359375 C 25.15625 2.828125 25.078125 3.238281 24.953125 3.59375 C 24.710938 4.3125 24.125 4.910156 23.1875 5.390625 C 22.257812 5.878906 20.984375 6.117188 19.359375 6.109375 C 17.742188 6.097656 15.789062 5.707031 13.5 4.9375 C 11.375 4.21875 9.617188 3.238281 8.234375 2 C 6.859375 0.757812 5.820312 -0.632812 5.125 -2.1875 C 4.425781 -3.75 4.039062 -5.363281 3.96875 -7.03125 C 3.90625 -8.707031 4.132812 -10.316406 4.65625 -11.859375 Z M 14.828125 -11.296875 C 14.078125 -10.398438 13.648438 -9.613281 13.546875 -8.9375 C 13.453125 -8.269531 13.703125 -7.832031 14.296875 -7.625 C 14.910156 -7.425781 15.628906 -7.539062 16.453125 -7.96875 C 17.285156 -8.394531 18.078125 -9.054688 18.828125 -9.953125 C 19.597656 -10.859375 20.03125 -11.644531 20.125 -12.3125 C 20.21875 -12.988281 19.957031 -13.429688 19.34375 -13.640625 C 18.757812 -13.835938 18.050781 -13.71875 17.21875 -13.28125 C 16.394531 -12.851562 15.597656 -12.191406 14.828125 -11.296875 Z M 14.828125 -11.296875 "/></g></g><g style="fill:#f48888;fill-opacity:1;"><g transform="translate(199.185559, 219.676106)"><path style="stroke:none" d="M 1.078125 -2.0625 C 1.285156 -2.90625 1.550781 -3.65625 1.875 -4.3125 C 2.207031 -4.96875 2.582031 -5.644531 3 -6.34375 C 3.425781 -7.050781 3.882812 -7.878906 4.375 -8.828125 C 4.863281 -9.785156 5.367188 -10.957031 5.890625 -12.34375 C 6.410156 -13.738281 6.941406 -15.457031 7.484375 -17.5 C 7.921875 -19.21875 8.25 -20.710938 8.46875 -21.984375 C 8.6875 -23.253906 8.820312 -24.351562 8.875 -25.28125 C 8.9375 -26.21875 8.957031 -27.035156 8.9375 -27.734375 C 8.914062 -28.441406 8.890625 -29.082031 8.859375 -29.65625 C 8.828125 -30.226562 8.828125 -30.789062 8.859375 -31.34375 C 8.890625 -31.90625 8.988281 -32.507812 9.15625 -33.15625 C 9.3125 -33.738281 9.570312 -34.144531 9.9375 -34.375 C 10.300781 -34.601562 10.707031 -34.722656 11.15625 -34.734375 C 11.613281 -34.742188 12.046875 -34.703125 12.453125 -34.609375 C 12.867188 -34.515625 13.207031 -34.429688 13.46875 -34.359375 L 27.484375 -30.71875 C 29.179688 -30.28125 30.59375 -29.550781 31.71875 -28.53125 C 32.84375 -27.507812 33.617188 -26.285156 34.046875 -24.859375 C 34.472656 -23.429688 34.472656 -21.894531 34.046875 -20.25 C 33.867188 -19.539062 33.585938 -18.84375 33.203125 -18.15625 C 32.828125 -17.46875 32.332031 -16.835938 31.71875 -16.265625 C 31.101562 -15.691406 30.367188 -15.234375 29.515625 -14.890625 C 28.660156 -14.554688 27.664062 -14.378906 26.53125 -14.359375 C 26.101562 -14.347656 25.863281 -14.242188 25.8125 -14.046875 C 25.78125 -13.921875 25.910156 -13.742188 26.203125 -13.515625 C 26.492188 -13.285156 26.863281 -12.992188 27.3125 -12.640625 C 27.757812 -12.285156 28.21875 -11.832031 28.6875 -11.28125 C 29.164062 -10.726562 29.570312 -10.0625 29.90625 -9.28125 C 30.25 -8.507812 30.460938 -7.59375 30.546875 -6.53125 C 30.628906 -5.476562 30.488281 -4.257812 30.125 -2.875 C 29.90625 -2.007812 29.550781 -1.144531 29.0625 -0.28125 C 28.582031 0.582031 27.972656 1.378906 27.234375 2.109375 C 26.492188 2.847656 25.601562 3.460938 24.5625 3.953125 C 23.519531 4.441406 22.328125 4.726562 20.984375 4.8125 C 19.648438 4.894531 18.15625 4.722656 16.5 4.296875 L 3.84375 1 C 3.582031 0.925781 3.269531 0.835938 2.90625 0.734375 C 2.539062 0.628906 2.1875 0.46875 1.84375 0.25 C 1.5 0.03125 1.242188 -0.257812 1.078125 -0.625 C 0.921875 -0.988281 0.921875 -1.46875 1.078125 -2.0625 Z M 14.375 -5.78125 C 14.1875 -5.070312 14.191406 -4.5625 14.390625 -4.25 C 14.597656 -3.945312 14.925781 -3.738281 15.375 -3.625 C 16.1875 -3.414062 16.882812 -3.398438 17.46875 -3.578125 C 18.0625 -3.753906 18.5625 -4.046875 18.96875 -4.453125 C 19.375 -4.859375 19.703125 -5.296875 19.953125 -5.765625 C 20.210938 -6.242188 20.394531 -6.679688 20.5 -7.078125 C 20.601562 -7.472656 20.660156 -7.945312 20.671875 -8.5 C 20.691406 -9.050781 20.617188 -9.597656 20.453125 -10.140625 C 20.285156 -10.691406 19.988281 -11.191406 19.5625 -11.640625 C 19.144531 -12.085938 18.53125 -12.414062 17.71875 -12.625 C 17.269531 -12.738281 16.878906 -12.710938 16.546875 -12.546875 C 16.222656 -12.378906 15.96875 -11.9375 15.78125 -11.21875 C 15.738281 -11.050781 15.671875 -10.78125 15.578125 -10.40625 C 15.492188 -10.039062 15.40625 -9.671875 15.3125 -9.296875 C 15.226562 -8.929688 15.164062 -8.65625 15.125 -8.46875 C 15.082031 -8.3125 15.003906 -8.046875 14.890625 -7.671875 C 14.785156 -7.304688 14.679688 -6.941406 14.578125 -6.578125 C 14.484375 -6.222656 14.414062 -5.957031 14.375 -5.78125 Z M 18.078125 -20.046875 C 17.941406 -19.523438 17.984375 -19.144531 18.203125 -18.90625 C 18.429688 -18.664062 18.769531 -18.488281 19.21875 -18.375 C 20.03125 -18.164062 20.71875 -18.101562 21.28125 -18.1875 C 21.84375 -18.28125 22.3125 -18.460938 22.6875 -18.734375 C 23.0625 -19.015625 23.351562 -19.316406 23.5625 -19.640625 C 23.78125 -19.960938 23.929688 -20.273438 24.015625 -20.578125 C 24.078125 -20.859375 24.097656 -21.195312 24.078125 -21.59375 C 24.054688 -22 23.945312 -22.410156 23.75 -22.828125 C 23.550781 -23.242188 23.226562 -23.628906 22.78125 -23.984375 C 22.332031 -24.347656 21.703125 -24.632812 20.890625 -24.84375 C 20.441406 -24.957031 20.0625 -24.960938 19.75 -24.859375 C 19.445312 -24.753906 19.226562 -24.441406 19.09375 -23.921875 Z M 18.078125 -20.046875 "/></g></g><g style="fill:#f48888;fill-opacity:1;"><g transform="translate(230.726575, 227.271515)"><path style="stroke:none" d="M 12.671875 0.84375 C 10.140625 0.75 7.992188 0.125 6.234375 -1.03125 C 4.472656 -2.195312 3.15625 -3.78125 2.28125 -5.78125 C 1.40625 -7.78125 1.015625 -10.085938 1.109375 -12.703125 C 1.210938 -15.316406 1.773438 -17.585938 2.796875 -19.515625 C 3.816406 -21.441406 5.25 -22.914062 7.09375 -23.9375 C 8.9375 -24.96875 11.125 -25.4375 13.65625 -25.34375 C 16.195312 -25.25 18.347656 -24.617188 20.109375 -23.453125 C 21.867188 -22.296875 23.1875 -20.71875 24.0625 -18.71875 C 24.9375 -16.726562 25.320312 -14.425781 25.21875 -11.8125 C 25.125 -9.195312 24.566406 -6.921875 23.546875 -4.984375 C 22.523438 -3.054688 21.09375 -1.578125 19.25 -0.546875 C 17.40625 0.472656 15.210938 0.9375 12.671875 0.84375 Z M 10.90625 -12.296875 C 10.832031 -10.398438 10.976562 -8.859375 11.34375 -7.671875 C 11.71875 -6.492188 12.242188 -5.894531 12.921875 -5.875 C 13.597656 -5.84375 14.164062 -6.398438 14.625 -7.546875 C 15.082031 -8.703125 15.347656 -10.226562 15.421875 -12.125 C 15.492188 -14.039062 15.34375 -15.59375 14.96875 -16.78125 C 14.601562 -17.96875 14.082031 -18.578125 13.40625 -18.609375 C 12.726562 -18.628906 12.160156 -18.0625 11.703125 -16.90625 C 11.242188 -15.75 10.976562 -14.210938 10.90625 -12.296875 Z M 10.90625 -12.296875 "/></g></g><g style="fill:#f48888;fill-opacity:1;"><g transform="translate(259.940874, 228.032681)"><path style="stroke:none" d="M 10.0625 -1.375 C 8.195312 -1.050781 6.472656 -1.257812 4.890625 -2 C 3.316406 -2.738281 1.96875 -4.003906 0.84375 -5.796875 C -0.28125 -7.585938 -1.082031 -9.867188 -1.5625 -12.640625 C -2.320312 -16.929688 -2.191406 -20.273438 -1.171875 -22.671875 C -0.148438 -25.078125 1.546875 -26.488281 3.921875 -26.90625 C 4.898438 -27.070312 5.769531 -27.078125 6.53125 -26.921875 C 7.289062 -26.765625 7.945312 -26.546875 8.5 -26.265625 C 9.050781 -25.984375 9.492188 -25.726562 9.828125 -25.5 C 10.171875 -25.269531 10.410156 -25.164062 10.546875 -25.1875 C 10.679688 -25.207031 10.742188 -25.285156 10.734375 -25.421875 C 10.722656 -25.554688 10.675781 -25.835938 10.59375 -26.265625 C 10.46875 -27.023438 10.222656 -27.785156 9.859375 -28.546875 C 9.492188 -29.304688 9.09375 -30.085938 8.65625 -30.890625 C 8.226562 -31.691406 7.828125 -32.519531 7.453125 -33.375 C 7.085938 -34.238281 6.820312 -35.140625 6.65625 -36.078125 C 6.550781 -36.671875 6.617188 -37.148438 6.859375 -37.515625 C 7.097656 -37.878906 7.414062 -38.160156 7.8125 -38.359375 C 8.21875 -38.554688 8.625 -38.695312 9.03125 -38.78125 C 9.445312 -38.863281 9.789062 -38.929688 10.0625 -38.984375 L 16.03125 -40.03125 C 16.300781 -40.070312 16.644531 -40.125 17.0625 -40.1875 C 17.488281 -40.25 17.925781 -40.253906 18.375 -40.203125 C 18.820312 -40.160156 19.21875 -40.007812 19.5625 -39.75 C 19.90625 -39.488281 20.128906 -39.0625 20.234375 -38.46875 C 20.410156 -37.476562 20.476562 -36.425781 20.4375 -35.3125 C 20.40625 -34.195312 20.335938 -32.992188 20.234375 -31.703125 C 20.140625 -30.410156 20.109375 -29.019531 20.140625 -27.53125 C 20.171875 -26.050781 20.335938 -24.453125 20.640625 -22.734375 C 21.015625 -20.566406 21.382812 -18.75 21.75 -17.28125 C 22.125 -15.820312 22.484375 -14.625 22.828125 -13.6875 C 23.179688 -12.75 23.503906 -11.976562 23.796875 -11.375 C 24.097656 -10.78125 24.378906 -10.257812 24.640625 -9.8125 C 24.898438 -9.375 25.125 -8.929688 25.3125 -8.484375 C 25.507812 -8.046875 25.664062 -7.492188 25.78125 -6.828125 C 25.882812 -6.222656 25.820312 -5.738281 25.59375 -5.375 C 25.363281 -5.019531 25.054688 -4.742188 24.671875 -4.546875 C 24.296875 -4.347656 23.925781 -4.210938 23.5625 -4.140625 C 23.195312 -4.066406 22.929688 -4.015625 22.765625 -3.984375 C 22.148438 -3.878906 21.582031 -3.835938 21.0625 -3.859375 C 20.550781 -3.878906 20.03125 -3.894531 19.5 -3.90625 C 18.96875 -3.925781 18.332031 -3.867188 17.59375 -3.734375 C 16.820312 -3.609375 16.160156 -3.445312 15.609375 -3.25 C 15.054688 -3.050781 14.53125 -2.832031 14.03125 -2.59375 C 13.539062 -2.363281 12.988281 -2.144531 12.375 -1.9375 C 11.757812 -1.726562 10.988281 -1.539062 10.0625 -1.375 Z M 8.09375 -14.28125 C 8.414062 -12.414062 8.882812 -10.941406 9.5 -9.859375 C 10.113281 -8.773438 10.753906 -8.289062 11.421875 -8.40625 C 12.085938 -8.53125 12.523438 -9.203125 12.734375 -10.421875 C 12.941406 -11.648438 12.882812 -13.195312 12.5625 -15.0625 C 12.226562 -16.945312 11.753906 -18.429688 11.140625 -19.515625 C 10.523438 -20.609375 9.882812 -21.09375 9.21875 -20.96875 C 8.550781 -20.851562 8.113281 -20.179688 7.90625 -18.953125 C 7.695312 -17.722656 7.757812 -16.164062 8.09375 -14.28125 Z M 8.09375 -14.28125 "/></g></g><g style="fill:#f48888;fill-opacity:1;"><g transform="translate(290.199415, 222.359906)"><path style="stroke:none" d="M 1.90625 5.25 C 1.75 4.851562 1.613281 4.390625 1.5 3.859375 C 1.394531 3.335938 1.351562 2.8125 1.375 2.28125 C 1.394531 1.75 1.519531 1.265625 1.75 0.828125 C 1.976562 0.390625 2.332031 0.0703125 2.8125 -0.125 C 3.40625 -0.375 3.941406 -0.515625 4.421875 -0.546875 C 4.898438 -0.585938 5.363281 -0.59375 5.8125 -0.5625 C 6.269531 -0.53125 6.722656 -0.523438 7.171875 -0.546875 C 7.628906 -0.578125 8.125 -0.703125 8.65625 -0.921875 C 9.34375 -1.210938 9.878906 -1.628906 10.265625 -2.171875 C 10.660156 -2.710938 10.800781 -3.335938 10.6875 -4.046875 C 9.726562 -4.578125 8.804688 -5.296875 7.921875 -6.203125 C 7.046875 -7.117188 6.132812 -8.113281 5.1875 -9.1875 C 4.238281 -10.269531 3.179688 -11.332031 2.015625 -12.375 C 0.722656 -13.519531 -0.425781 -14.46875 -1.4375 -15.21875 C -2.457031 -15.976562 -3.351562 -16.617188 -4.125 -17.140625 C -4.894531 -17.671875 -5.566406 -18.140625 -6.140625 -18.546875 C -6.722656 -18.960938 -7.21875 -19.398438 -7.625 -19.859375 C -8.039062 -20.316406 -8.390625 -20.878906 -8.671875 -21.546875 C -8.929688 -22.171875 -8.929688 -22.753906 -8.671875 -23.296875 C -8.421875 -23.847656 -7.984375 -24.253906 -7.359375 -24.515625 L 0.140625 -27.640625 C 0.578125 -27.828125 1.050781 -27.960938 1.5625 -28.046875 C 2.082031 -28.140625 2.566406 -28.097656 3.015625 -27.921875 C 3.460938 -27.753906 3.8125 -27.367188 4.0625 -26.765625 C 4.269531 -26.265625 4.382812 -25.707031 4.40625 -25.09375 C 4.425781 -24.476562 4.578125 -23.835938 4.859375 -23.171875 C 5.222656 -22.285156 5.789062 -21.414062 6.5625 -20.5625 C 7.34375 -19.71875 8.171875 -18.796875 9.046875 -17.796875 C 8.953125 -19.128906 8.875 -20.363281 8.8125 -21.5 C 8.757812 -22.644531 8.550781 -23.660156 8.1875 -24.546875 C 7.90625 -25.210938 7.550781 -25.769531 7.125 -26.21875 C 6.707031 -26.664062 6.394531 -27.140625 6.1875 -27.640625 C 5.9375 -28.242188 5.90625 -28.765625 6.09375 -29.203125 C 6.289062 -29.648438 6.597656 -30.019531 7.015625 -30.3125 C 7.441406 -30.613281 7.875 -30.859375 8.3125 -31.046875 L 13.765625 -33.3125 C 14.390625 -33.570312 14.988281 -33.601562 15.5625 -33.40625 C 16.132812 -33.207031 16.550781 -32.796875 16.8125 -32.171875 C 17.007812 -31.703125 17.117188 -31.222656 17.140625 -30.734375 C 17.160156 -30.242188 17.117188 -29.664062 17.015625 -29 C 16.910156 -28.34375 16.785156 -27.53125 16.640625 -26.5625 C 16.492188 -25.601562 16.34375 -24.441406 16.1875 -23.078125 C 16.03125 -21.710938 15.90625 -20.0625 15.8125 -18.125 C 15.738281 -16.5625 15.675781 -14.953125 15.625 -13.296875 C 15.582031 -11.648438 15.578125 -10.082031 15.609375 -8.59375 C 15.648438 -7.101562 15.75 -5.820312 15.90625 -4.75 C 16.21875 -2.625 16.238281 -0.789062 15.96875 0.75 C 15.707031 2.300781 15.257812 3.597656 14.625 4.640625 C 14 5.691406 13.273438 6.535156 12.453125 7.171875 C 11.640625 7.816406 10.847656 8.296875 10.078125 8.609375 C 8.753906 9.160156 7.5625 9.363281 6.5 9.21875 C 5.4375 9.070312 4.519531 8.644531 3.75 7.9375 C 2.976562 7.238281 2.363281 6.34375 1.90625 5.25 Z M 1.90625 5.25 "/></g></g><g style="fill:#ffffff;fill-opacity:1;"><g transform="translate(199.624999, 218.146721)"><path style="stroke:none" d="M 1.078125 -2.0625 C 1.285156 -2.90625 1.550781 -3.65625 1.875 -4.3125 C 2.207031 -4.96875 2.582031 -5.644531 3 -6.34375 C 3.425781 -7.050781 3.882812 -7.878906 4.375 -8.828125 C 4.863281 -9.785156 5.367188 -10.957031 5.890625 -12.34375 C 6.410156 -13.738281 6.941406 -15.457031 7.484375 -17.5 C 7.921875 -19.21875 8.25 -20.710938 8.46875 -21.984375 C 8.6875 -23.253906 8.820312 -24.351562 8.875 -25.28125 C 8.9375 -26.21875 8.957031 -27.035156 8.9375 -27.734375 C 8.914062 -28.441406 8.890625 -29.082031 8.859375 -29.65625 C 8.828125 -30.226562 8.828125 -30.789062 8.859375 -31.34375 C 8.890625 -31.90625 8.988281 -32.507812 9.15625 -33.15625 C 9.3125 -33.738281 9.570312 -34.144531 9.9375 -34.375 C 10.300781 -34.601562 10.707031 -34.722656 11.15625 -34.734375 C 11.613281 -34.742188 12.046875 -34.703125 12.453125 -34.609375 C 12.867188 -34.515625 13.207031 -34.429688 13.46875 -34.359375 L 27.484375 -30.71875 C 29.179688 -30.28125 30.59375 -29.550781 31.71875 -28.53125 C 32.84375 -27.507812 33.617188 -26.285156 34.046875 -24.859375 C 34.472656 -23.429688 34.472656 -21.894531 34.046875 -20.25 C 33.867188 -19.539062 33.585938 -18.84375 33.203125 -18.15625 C 32.828125 -17.46875 32.332031 -16.835938 31.71875 -16.265625 C 31.101562 -15.691406 30.367188 -15.234375 29.515625 -14.890625 C 28.660156 -14.554688 27.664062 -14.378906 26.53125 -14.359375 C 26.101562 -14.347656 25.863281 -14.242188 25.8125 -14.046875 C 25.78125 -13.921875 25.910156 -13.742188 26.203125 -13.515625 C 26.492188 -13.285156 26.863281 -12.992188 27.3125 -12.640625 C 27.757812 -12.285156 28.21875 -11.832031 28.6875 -11.28125 C 29.164062 -10.726562 29.570312 -10.0625 29.90625 -9.28125 C 30.25 -8.507812 30.460938 -7.59375 30.546875 -6.53125 C 30.628906 -5.476562 30.488281 -4.257812 30.125 -2.875 C 29.90625 -2.007812 29.550781 -1.144531 29.0625 -0.28125 C 28.582031 0.582031 27.972656 1.378906 27.234375 2.109375 C 26.492188 2.847656 25.601562 3.460938 24.5625 3.953125 C 23.519531 4.441406 22.328125 4.726562 20.984375 4.8125 C 19.648438 4.894531 18.15625 4.722656 16.5 4.296875 L 3.84375 1 C 3.582031 0.925781 3.269531 0.835938 2.90625 0.734375 C 2.539062 0.628906 2.1875 0.46875 1.84375 0.25 C 1.5 0.03125 1.242188 -0.257812 1.078125 -0.625 C 0.921875 -0.988281 0.921875 -1.46875 1.078125 -2.0625 Z M 14.375 -5.78125 C 14.1875 -5.070312 14.191406 -4.5625 14.390625 -4.25 C 14.597656 -3.945312 14.925781 -3.738281 15.375 -3.625 C 16.1875 -3.414062 16.882812 -3.398438 17.46875 -3.578125 C 18.0625 -3.753906 18.5625 -4.046875 18.96875 -4.453125 C 19.375 -4.859375 19.703125 -5.296875 19.953125 -5.765625 C 20.210938 -6.242188 20.394531 -6.679688 20.5 -7.078125 C 20.601562 -7.472656 20.660156 -7.945312 20.671875 -8.5 C 20.691406 -9.050781 20.617188 -9.597656 20.453125 -10.140625 C 20.285156 -10.691406 19.988281 -11.191406 19.5625 -11.640625 C 19.144531 -12.085938 18.53125 -12.414062 17.71875 -12.625 C 17.269531 -12.738281 16.878906 -12.710938 16.546875 -12.546875 C 16.222656 -12.378906 15.96875 -11.9375 15.78125 -11.21875 C 15.738281 -11.050781 15.671875 -10.78125 15.578125 -10.40625 C 15.492188 -10.039062 15.40625 -9.671875 15.3125 -9.296875 C 15.226562 -8.929688 15.164062 -8.65625 15.125 -8.46875 C 15.082031 -8.3125 15.003906 -8.046875 14.890625 -7.671875 C 14.785156 -7.304688 14.679688 -6.941406 14.578125 -6.578125 C 14.484375 -6.222656 14.414062 -5.957031 14.375 -5.78125 Z M 18.078125 -20.046875 C 17.941406 -19.523438 17.984375 -19.144531 18.203125 -18.90625 C 18.429688 -18.664062 18.769531 -18.488281 19.21875 -18.375 C 20.03125 -18.164062 20.71875 -18.101562 21.28125 -18.1875 C 21.84375 -18.28125 22.3125 -18.460938 22.6875 -18.734375 C 23.0625 -19.015625 23.351562 -19.316406 23.5625 -19.640625 C 23.78125 -19.960938 23.929688 -20.273438 24.015625 -20.578125 C 24.078125 -20.859375 24.097656 -21.195312 24.078125 -21.59375 C 24.054688 -22 23.945312 -22.410156 23.75 -22.828125 C 23.550781 -23.242188 23.226562 -23.628906 22.78125 -23.984375 C 22.332031 -24.347656 21.703125 -24.632812 20.890625 -24.84375 C 20.441406 -24.957031 20.0625 -24.960938 19.75 -24.859375 C 19.445312 -24.753906 19.226562 -24.441406 19.09375 -23.921875 Z M 18.078125 -20.046875 "/></g></g><g style="fill:#ffffff;fill-opacity:1;"><g transform="translate(231.166013, 225.74213)"><path style="stroke:none" d="M 12.671875 0.84375 C 10.140625 0.75 7.992188 0.125 6.234375 -1.03125 C 4.472656 -2.195312 3.15625 -3.78125 2.28125 -5.78125 C 1.40625 -7.78125 1.015625 -10.085938 1.109375 -12.703125 C 1.210938 -15.316406 1.773438 -17.585938 2.796875 -19.515625 C 3.816406 -21.441406 5.25 -22.914062 7.09375 -23.9375 C 8.9375 -24.96875 11.125 -25.4375 13.65625 -25.34375 C 16.195312 -25.25 18.347656 -24.617188 20.109375 -23.453125 C 21.867188 -22.296875 23.1875 -20.71875 24.0625 -18.71875 C 24.9375 -16.726562 25.320312 -14.425781 25.21875 -11.8125 C 25.125 -9.195312 24.566406 -6.921875 23.546875 -4.984375 C 22.523438 -3.054688 21.09375 -1.578125 19.25 -0.546875 C 17.40625 0.472656 15.210938 0.9375 12.671875 0.84375 Z M 10.90625 -12.296875 C 10.832031 -10.398438 10.976562 -8.859375 11.34375 -7.671875 C 11.71875 -6.492188 12.242188 -5.894531 12.921875 -5.875 C 13.597656 -5.84375 14.164062 -6.398438 14.625 -7.546875 C 15.082031 -8.703125 15.347656 -10.226562 15.421875 -12.125 C 15.492188 -14.039062 15.34375 -15.59375 14.96875 -16.78125 C 14.601562 -17.96875 14.082031 -18.578125 13.40625 -18.609375 C 12.726562 -18.628906 12.160156 -18.0625 11.703125 -16.90625 C 11.242188 -15.75 10.976562 -14.210938 10.90625 -12.296875 Z M 10.90625 -12.296875 "/></g></g><g style="fill:#ffffff;fill-opacity:1;"><g transform="translate(260.380329, 226.503295)"><path style="stroke:none" d="M 10.0625 -1.375 C 8.195312 -1.050781 6.472656 -1.257812 4.890625 -2 C 3.316406 -2.738281 1.96875 -4.003906 0.84375 -5.796875 C -0.28125 -7.585938 -1.082031 -9.867188 -1.5625 -12.640625 C -2.320312 -16.929688 -2.191406 -20.273438 -1.171875 -22.671875 C -0.148438 -25.078125 1.546875 -26.488281 3.921875 -26.90625 C 4.898438 -27.070312 5.769531 -27.078125 6.53125 -26.921875 C 7.289062 -26.765625 7.945312 -26.546875 8.5 -26.265625 C 9.050781 -25.984375 9.492188 -25.726562 9.828125 -25.5 C 10.171875 -25.269531 10.410156 -25.164062 10.546875 -25.1875 C 10.679688 -25.207031 10.742188 -25.285156 10.734375 -25.421875 C 10.722656 -25.554688 10.675781 -25.835938 10.59375 -26.265625 C 10.46875 -27.023438 10.222656 -27.785156 9.859375 -28.546875 C 9.492188 -29.304688 9.09375 -30.085938 8.65625 -30.890625 C 8.226562 -31.691406 7.828125 -32.519531 7.453125 -33.375 C 7.085938 -34.238281 6.820312 -35.140625 6.65625 -36.078125 C 6.550781 -36.671875 6.617188 -37.148438 6.859375 -37.515625 C 7.097656 -37.878906 7.414062 -38.160156 7.8125 -38.359375 C 8.21875 -38.554688 8.625 -38.695312 9.03125 -38.78125 C 9.445312 -38.863281 9.789062 -38.929688 10.0625 -38.984375 L 16.03125 -40.03125 C 16.300781 -40.070312 16.644531 -40.125 17.0625 -40.1875 C 17.488281 -40.25 17.925781 -40.253906 18.375 -40.203125 C 18.820312 -40.160156 19.21875 -40.007812 19.5625 -39.75 C 19.90625 -39.488281 20.128906 -39.0625 20.234375 -38.46875 C 20.410156 -37.476562 20.476562 -36.425781 20.4375 -35.3125 C 20.40625 -34.195312 20.335938 -32.992188 20.234375 -31.703125 C 20.140625 -30.410156 20.109375 -29.019531 20.140625 -27.53125 C 20.171875 -26.050781 20.335938 -24.453125 20.640625 -22.734375 C 21.015625 -20.566406 21.382812 -18.75 21.75 -17.28125 C 22.125 -15.820312 22.484375 -14.625 22.828125 -13.6875 C 23.179688 -12.75 23.503906 -11.976562 23.796875 -11.375 C 24.097656 -10.78125 24.378906 -10.257812 24.640625 -9.8125 C 24.898438 -9.375 25.125 -8.929688 25.3125 -8.484375 C 25.507812 -8.046875 25.664062 -7.492188 25.78125 -6.828125 C 25.882812 -6.222656 25.820312 -5.738281 25.59375 -5.375 C 25.363281 -5.019531 25.054688 -4.742188 24.671875 -4.546875 C 24.296875 -4.347656 23.925781 -4.210938 23.5625 -4.140625 C 23.195312 -4.066406 22.929688 -4.015625 22.765625 -3.984375 C 22.148438 -3.878906 21.582031 -3.835938 21.0625 -3.859375 C 20.550781 -3.878906 20.03125 -3.894531 19.5 -3.90625 C 18.96875 -3.925781 18.332031 -3.867188 17.59375 -3.734375 C 16.820312 -3.609375 16.160156 -3.445312 15.609375 -3.25 C 15.054688 -3.050781 14.53125 -2.832031 14.03125 -2.59375 C 13.539062 -2.363281 12.988281 -2.144531 12.375 -1.9375 C 11.757812 -1.726562 10.988281 -1.539062 10.0625 -1.375 Z M 8.09375 -14.28125 C 8.414062 -12.414062 8.882812 -10.941406 9.5 -9.859375 C 10.113281 -8.773438 10.753906 -8.289062 11.421875 -8.40625 C 12.085938 -8.53125 12.523438 -9.203125 12.734375 -10.421875 C 12.941406 -11.648438 12.882812 -13.195312 12.5625 -15.0625 C 12.226562 -16.945312 11.753906 -18.429688 11.140625 -19.515625 C 10.523438 -20.609375 9.882812 -21.09375 9.21875 -20.96875 C 8.550781 -20.851562 8.113281 -20.179688 7.90625 -18.953125 C 7.695312 -17.722656 7.757812 -16.164062 8.09375 -14.28125 Z M 8.09375 -14.28125 "/></g></g><g style="fill:#ffffff;fill-opacity:1;"><g transform="translate(290.638838, 220.830521)"><path style="stroke:none" d="M 1.90625 5.25 C 1.75 4.851562 1.613281 4.390625 1.5 3.859375 C 1.394531 3.335938 1.351562 2.8125 1.375 2.28125 C 1.394531 1.75 1.519531 1.265625 1.75 0.828125 C 1.976562 0.390625 2.332031 0.0703125 2.8125 -0.125 C 3.40625 -0.375 3.941406 -0.515625 4.421875 -0.546875 C 4.898438 -0.585938 5.363281 -0.59375 5.8125 -0.5625 C 6.269531 -0.53125 6.722656 -0.523438 7.171875 -0.546875 C 7.628906 -0.578125 8.125 -0.703125 8.65625 -0.921875 C 9.34375 -1.210938 9.878906 -1.628906 10.265625 -2.171875 C 10.660156 -2.710938 10.800781 -3.335938 10.6875 -4.046875 C 9.726562 -4.578125 8.804688 -5.296875 7.921875 -6.203125 C 7.046875 -7.117188 6.132812 -8.113281 5.1875 -9.1875 C 4.238281 -10.269531 3.179688 -11.332031 2.015625 -12.375 C 0.722656 -13.519531 -0.425781 -14.46875 -1.4375 -15.21875 C -2.457031 -15.976562 -3.351562 -16.617188 -4.125 -17.140625 C -4.894531 -17.671875 -5.566406 -18.140625 -6.140625 -18.546875 C -6.722656 -18.960938 -7.21875 -19.398438 -7.625 -19.859375 C -8.039062 -20.316406 -8.390625 -20.878906 -8.671875 -21.546875 C -8.929688 -22.171875 -8.929688 -22.753906 -8.671875 -23.296875 C -8.421875 -23.847656 -7.984375 -24.253906 -7.359375 -24.515625 L 0.140625 -27.640625 C 0.578125 -27.828125 1.050781 -27.960938 1.5625 -28.046875 C 2.082031 -28.140625 2.566406 -28.097656 3.015625 -27.921875 C 3.460938 -27.753906 3.8125 -27.367188 4.0625 -26.765625 C 4.269531 -26.265625 4.382812 -25.707031 4.40625 -25.09375 C 4.425781 -24.476562 4.578125 -23.835938 4.859375 -23.171875 C 5.222656 -22.285156 5.789062 -21.414062 6.5625 -20.5625 C 7.34375 -19.71875 8.171875 -18.796875 9.046875 -17.796875 C 8.953125 -19.128906 8.875 -20.363281 8.8125 -21.5 C 8.757812 -22.644531 8.550781 -23.660156 8.1875 -24.546875 C 7.90625 -25.210938 7.550781 -25.769531 7.125 -26.21875 C 6.707031 -26.664062 6.394531 -27.140625 6.1875 -27.640625 C 5.9375 -28.242188 5.90625 -28.765625 6.09375 -29.203125 C 6.289062 -29.648438 6.597656 -30.019531 7.015625 -30.3125 C 7.441406 -30.613281 7.875 -30.859375 8.3125 -31.046875 L 13.765625 -33.3125 C 14.390625 -33.570312 14.988281 -33.601562 15.5625 -33.40625 C 16.132812 -33.207031 16.550781 -32.796875 16.8125 -32.171875 C 17.007812 -31.703125 17.117188 -31.222656 17.140625 -30.734375 C 17.160156 -30.242188 17.117188 -29.664062 17.015625 -29 C 16.910156 -28.34375 16.785156 -27.53125 16.640625 -26.5625 C 16.492188 -25.601562 16.34375 -24.441406 16.1875 -23.078125 C 16.03125 -21.710938 15.90625 -20.0625 15.8125 -18.125 C 15.738281 -16.5625 15.675781 -14.953125 15.625 -13.296875 C 15.582031 -11.648438 15.578125 -10.082031 15.609375 -8.59375 C 15.648438 -7.101562 15.75 -5.820312 15.90625 -4.75 C 16.21875 -2.625 16.238281 -0.789062 15.96875 0.75 C 15.707031 2.300781 15.257812 3.597656 14.625 4.640625 C 14 5.691406 13.273438 6.535156 12.453125 7.171875 C 11.640625 7.816406 10.847656 8.296875 10.078125 8.609375 C 8.753906 9.160156 7.5625 9.363281 6.5 9.21875 C 5.4375 9.070312 4.519531 8.644531 3.75 7.9375 C 2.976562 7.238281 2.363281 6.34375 1.90625 5.25 Z M 1.90625 5.25 "/></g></g></g></svg>